<svg width="30" height="30" viewBox="0 0 30 30" fill="none" xmlns="http://www.w3.org/2000/svg">
<circle cx="15" cy="15" r="14.5" stroke="#DCDCDC"/>
<path d="M16.875 19.875L12.275 15.275C12.175 15.175 12.1043 15.0667 12.063 14.95C12.021 14.8333 12 14.7083 12 14.575C12 14.4417 12.021 14.3167 12.063 14.2C12.1043 14.0833 12.175 13.975 12.275 13.875L16.875 9.275C17.0583 9.09167 17.2917 9 17.575 9C17.8583 9 18.0917 9.09167 18.275 9.275C18.4583 9.45833 18.55 9.69167 18.55 9.975C18.55 10.2583 18.4583 10.4917 18.275 10.675L14.375 14.575L18.275 18.475C18.4583 18.6583 18.55 18.8917 18.55 19.175C18.55 19.4583 18.4583 19.6917 18.275 19.875C18.0917 20.0583 17.8583 20.15 17.575 20.15C17.2917 20.15 17.0583 20.0583 16.875 19.875Z" fill="#DCDCDC"/>
</svg>
